<svg width="185" height="47" viewBox="0 0 185 47" fill="none" xmlns="http://www.w3.org/2000/svg">
<g id="Group 11">
<path id="Vector" d="M22.7342 11.2488C20.7597 10.1418 18.5339 9.58538 16.0568 9.58538C13.8399 9.58538 11.8983 10.076 10.235 11.0543C9.45113 11.515 8.75108 12.0924 8.1318 12.7775V7.62939e-06H0.5V36.2952H7.78775V33.2407C8.44593 34.0395 9.2118 34.7036 10.0854 35.2182C11.7487 36.1965 13.7382 36.6871 16.0538 36.6871C18.5309 36.6871 20.7567 36.1247 22.7313 34.9998C24.7028 33.8749 26.2704 32.3013 27.4282 30.2789C28.586 28.2565 29.1634 25.8751 29.1634 23.1377C29.1634 20.4003 28.583 17.9681 27.4282 15.9457C26.2704 13.9233 24.7058 12.3587 22.7313 11.2488H22.7342ZM20.5324 27.024C19.928 28.1159 19.1293 28.9566 18.136 29.543C17.1398 30.1293 16.0089 30.4225 14.7375 30.4225C13.466 30.4225 12.3232 30.1293 11.312 29.543C10.3008 28.9566 9.50199 28.1159 8.91562 27.024C8.32925 25.932 8.03606 24.6366 8.03606 23.1348C8.03606 21.6329 8.32925 20.2986 8.91562 19.2216C9.50199 18.1446 10.3008 17.3129 11.312 16.7266C12.3232 16.1402 13.463 15.847 14.7375 15.847C16.0119 15.847 17.1428 16.1402 18.136 16.7266C19.1293 17.3129 19.928 18.1446 20.5324 19.2216C21.1367 20.2986 21.4358 21.603 21.4358 23.1348C21.4358 24.6665 21.1337 25.932 20.5324 27.024Z" fill="white"/>
<path id="Vector_2" d="M51.9373 22.9882C51.9373 24.5857 51.677 25.917 51.1535 26.9761C50.6299 28.0351 49.9149 28.819 49.0025 29.3245C48.09 29.8301 47.0459 30.0814 45.8731 30.0814C44.1769 30.0814 42.8635 29.5669 41.9361 28.5407C41.0057 27.5146 40.542 25.908 40.542 23.7211V9.9743H32.9102V24.846C32.9102 27.5535 33.3828 29.7793 34.3282 31.5234C35.2736 33.2676 36.6019 34.566 38.3161 35.4126C40.0274 36.2623 41.975 36.6841 44.1619 36.6841C46.1843 36.6841 48.0511 36.2204 49.7623 35.29C50.7616 34.7485 51.6142 34.0484 52.3292 33.2018V36.2952H59.5691V9.97729H51.9373V22.9882Z" fill="white"/>
<path id="Vector_3" d="M78.0107 27.8497L70.6242 9.97729H62.75L74.1424 36.5136L74.0497 36.735C73.5291 37.9077 72.9487 38.7484 72.3145 39.254C71.6772 39.7596 70.8216 40.0109 69.7476 40.0109C68.9967 40.0109 68.2398 39.8643 67.4739 39.5711C66.708 39.2779 66.0319 38.868 65.4426 38.3475L62.6543 43.7774C63.5009 44.5283 64.5929 45.1147 65.9332 45.5395C67.2705 45.9643 68.6227 46.1767 69.9929 46.1767C71.5905 46.1767 73.0504 45.9314 74.3698 45.4438C75.6891 44.9561 76.8977 44.1065 77.9897 42.9008C79.0817 41.6952 80.051 40.0318 80.9006 37.9107L92.7866 9.98028H85.448L78.0136 27.8526L78.0107 27.8497Z" fill="white"/>
<path id="Vector_4" d="M118.144 11.2488C116.17 10.1418 113.944 9.58538 111.467 9.58538C109.25 9.58538 107.308 10.076 105.645 11.0543C104.861 11.515 104.161 12.0924 103.542 12.7775V0H95.9102V36.2952H103.198V33.2407C103.856 34.0395 104.622 34.7036 105.496 35.2182C107.159 36.1965 109.148 36.6871 111.464 36.6871C113.941 36.6871 116.167 36.1247 118.141 34.9998C120.113 33.8749 121.681 32.3013 122.838 30.2789C123.996 28.2565 124.574 25.8751 124.574 23.1377C124.574 20.4003 123.993 17.9681 122.838 15.9457C121.681 13.9233 120.116 12.3587 118.141 11.2488H118.144ZM115.943 27.0239C115.338 28.1159 114.539 28.9566 113.546 29.5429C112.55 30.1293 111.419 30.4225 110.148 30.4225C108.876 30.4225 107.733 30.1293 106.722 29.5429C105.711 28.9566 104.912 28.1159 104.326 27.0239C103.739 25.932 103.446 24.6366 103.446 23.1347C103.446 21.6329 103.739 20.2986 104.326 19.2216C104.912 18.1446 105.711 17.3129 106.722 16.7265C107.733 16.1402 108.873 15.847 110.148 15.847C111.422 15.847 112.553 16.1402 113.546 16.7265C114.539 17.3129 115.338 18.1446 115.943 19.2216C116.547 20.2986 116.846 21.603 116.846 23.1347C116.846 24.6665 116.544 25.932 115.943 27.0239Z" fill="white"/>
<path id="Vector_5" d="M140.58 27.8496L133.194 9.97726H125.319L136.712 36.5136L136.619 36.7349C136.098 37.9077 135.518 38.7483 134.884 39.2539C134.247 39.7595 133.391 40.0108 132.317 40.0108C131.566 40.0108 130.809 39.8642 130.043 39.5711C129.277 39.2779 128.601 38.868 128.012 38.3475L125.224 43.7774C126.07 44.5283 127.162 45.1147 128.503 45.5395C129.84 45.9643 131.192 46.1767 132.562 46.1767C134.16 46.1767 135.62 45.9314 136.939 45.4438C138.258 44.9561 139.467 44.1065 140.559 42.9008C141.651 41.6952 142.62 40.0318 143.47 37.9107L155.356 9.98025H148.017L140.583 27.8526L140.58 27.8496Z" fill="white"/>
<path id="Vector_6" d="M182.637 15.5687C181.398 13.4327 179.714 11.7902 177.59 10.6444C175.463 9.4986 173.078 8.92719 170.433 8.92719C167.789 8.92719 165.228 9.53451 163.05 10.7491C160.872 11.9638 159.158 13.6391 157.901 15.7752C156.645 17.9142 156.02 20.3674 156.02 23.1377C156.02 25.908 156.654 28.3104 157.928 30.4494C159.2 32.5885 161.001 34.2728 163.328 35.5024C165.656 36.735 168.357 37.3483 171.439 37.3483C173.883 37.3483 176.043 36.9623 177.919 36.1935C179.795 35.4246 181.35 34.3207 182.589 32.8846L178.421 28.2685C177.518 29.157 176.522 29.8242 175.433 30.2699C174.344 30.7157 173.081 30.9371 171.642 30.9371C170.036 30.9371 168.635 30.6379 167.448 30.0396C166.26 29.4412 165.339 28.5706 164.686 27.4218C164.333 26.7996 164.076 26.1234 163.915 25.3964H184.348C184.381 25.0554 184.414 24.6874 184.45 24.2925C184.482 23.9006 184.5 23.5476 184.5 23.2424C184.5 20.2657 183.881 17.7108 182.643 15.5717L182.637 15.5687ZM166.942 15.8171C167.962 15.2187 169.144 14.9195 170.481 14.9195C171.819 14.9195 172.991 15.2187 173.997 15.8171C175.002 16.4154 175.789 17.2441 176.357 18.3061C176.734 19.0092 176.985 19.796 177.111 20.6666H163.81C163.939 19.808 164.187 19.0271 164.555 18.3331C165.123 17.2561 165.919 16.4184 166.939 15.82L166.942 15.8171Z" fill="white"/>
</g>
</svg>
