<svg width="24" height="24" viewBox="0 0 24 24" fill="none" xmlns="http://www.w3.org/2000/svg">
<g clip-path="url(#clip0_520_3868)">
<path fill-rule="evenodd" clip-rule="evenodd" d="M10.85 15.5002V15.1002C10.85 13.9221 11.3662 12.9257 11.9933 12.1407C12.6188 11.358 13.4141 10.7094 14.1232 10.2009C14.8889 9.65178 15.35 8.92134 15.35 8.1002C15.35 6.32611 14.1184 5.25019 12.5 5.25019C11.576 5.25019 10.8296 5.45475 10.2058 5.83309C9.57811 6.21387 9.00613 6.81246 8.49994 7.7037L6.5 6.56781C7.15719 5.41071 7.98277 4.49152 9.01297 3.8666C10.0472 3.23925 11.2191 2.9502 12.5 2.9502C15.2913 2.95019 17.65 4.96057 17.65 8.1002C17.65 9.87405 16.6364 11.2289 15.4636 12.07C14.8262 12.527 14.2249 13.0325 13.7902 13.5765C13.3573 14.1183 13.15 14.6214 13.15 15.1002V15.5002H10.85Z" fill="#27262E"/>
<path d="M13.5 19.5002C13.5 20.3286 12.8284 21.0002 12 21.0002C11.1715 21.0002 10.5 20.3286 10.5 19.5002C10.5 18.6718 11.1715 18.0002 12 18.0002C12.8284 18.0002 13.5 18.6718 13.5 19.5002Z" fill="#27262E"/>
</g>
<defs>
<clipPath id="clip0_520_3868">
<rect width="24" height="24" fill="white"/>
</clipPath>
</defs>
</svg>