<svg width="24" height="24" viewBox="0 0 24 24" fill="none" xmlns="http://www.w3.org/2000/svg">
<g clip-path="url(#clip0_520_3869)">
<path fill-rule="evenodd" clip-rule="evenodd" d="M11.9991 8.77576C10.2185 8.77576 8.77493 10.2193 8.77493 12C8.77493 13.7806 10.2185 15.2241 11.9991 15.2241C13.7798 15.2241 15.2233 13.7806 15.2233 12C15.2233 10.2193 13.7798 8.77576 11.9991 8.77576ZM10.2749 12C10.2749 11.0477 11.0469 10.2758 11.9991 10.2758C12.9514 10.2758 13.7233 11.0477 13.7233 12C13.7233 12.9522 12.9514 13.7241 11.9991 13.7241C11.0469 13.7241 10.2749 12.9522 10.2749 12Z" fill="#27262E"/>
<path fill-rule="evenodd" clip-rule="evenodd" d="M18.5758 5.40778L14.4198 3.00832L12.9549 5.54562C12.316 5.45119 11.6721 5.45356 11.0441 5.54687L9.57847 3.0083L5.42249 5.40776L6.88787 7.94588C6.69212 8.19324 6.5121 8.45764 6.35003 8.73836C6.18794 9.0191 6.04896 9.30724 5.9326 9.60048L3.00195 9.60048V14.3994H5.93321C6.16639 14.9899 6.48629 15.5487 6.88751 16.0547L5.42257 18.5921L9.57855 20.9915L11.0435 18.4542C11.6824 18.5486 12.3263 18.5463 12.9542 18.453L14.4198 20.9915L18.5758 18.5921L17.1105 16.054C17.3063 15.8066 17.4863 15.5422 17.6484 15.2615C17.8105 14.9807 17.9494 14.6926 18.0658 14.3994L20.9965 14.3994V9.60047H18.0652C17.832 9.00997 17.5121 8.45112 17.1109 7.94504L18.5758 5.40778ZM13.7076 7.24191L14.9688 5.05736L16.5267 5.95682L15.2655 8.14135L15.65 8.54755C16.1972 9.12565 16.5909 9.81946 16.8129 10.5646L16.9726 11.1005H19.4965V12.8994H16.9745L16.8145 13.4345C16.7046 13.8021 16.5503 14.1633 16.3493 14.5115C16.1484 14.8596 15.9126 15.1738 15.6492 15.4527L15.2658 15.8589L16.5268 18.043L14.9689 18.9425L13.7069 16.7567L13.163 16.8863C12.4067 17.0666 11.609 17.0726 10.8348 16.8878L10.2908 16.7579L9.02951 18.9425L7.4716 18.043L8.73289 15.8584L8.34842 15.4522C7.80125 14.8742 7.40754 14.1804 7.18552 13.4352L7.02586 12.8994H4.50195L4.50195 11.1005H7.02394L7.18395 10.5653C7.29383 10.1978 7.44807 9.83649 7.64907 9.48836C7.85005 9.14025 8.0858 8.82604 8.34912 8.54713L8.73257 8.14099L7.47153 5.9568L9.02943 5.05734L10.2914 7.24316L10.8353 7.11349C11.5916 6.93318 12.3893 6.92724 13.1636 7.11205L13.7076 7.24191Z" fill="#27262E"/>
</g>
<defs>
<clipPath id="clip0_520_3869">
<rect width="24" height="24" fill="white"/>
</clipPath>
</defs>
</svg>