<svg width="100" height="100" viewBox="0 0 100 100" fill="none" xmlns="http://www.w3.org/2000/svg">
<g clip-path="url(#clip0_520_8199)">
<path d="M84.6582 76.2638C98.6541 58.2787 96.4771 33.1754 79.7955 20.1938C63.114 7.21232 38.2451 11.2685 24.2491 29.2535C10.2532 47.2386 12.4303 72.342 29.1118 85.3235C45.7933 98.305 70.6623 94.2488 84.6582 76.2638Z" fill="#C00FC4" stroke="black" stroke-width="2" stroke-miterlimit="10"/>
<mask id="mask0_520_8199" style="mask-type:luminance" maskUnits="userSpaceOnUse" x="15" y="12" width="79" height="81">
<path d="M84.6562 76.2638C98.6522 58.2787 96.4751 33.1754 79.7936 20.1938C63.1121 7.21232 38.2431 11.2685 24.2472 29.2535C10.2512 47.2386 12.4283 72.342 29.1098 85.3235C45.7913 98.305 70.6603 94.2488 84.6562 76.2638Z" fill="white"/>
</mask>
<g mask="url(#mask0_520_8199)">
<path d="M75.0835 96.9255L45.5791 81.1045" stroke="black" stroke-width="2" stroke-miterlimit="10"/>
<path d="M78.9419 89.7321L49.4375 73.9111" stroke="black" stroke-width="2" stroke-miterlimit="10"/>
<path d="M82.7993 82.5363L53.2949 66.7153" stroke="black" stroke-width="2" stroke-miterlimit="10"/>
<path d="M86.6568 75.341L57.1523 59.52" stroke="black" stroke-width="2" stroke-miterlimit="10"/>
<path d="M90.5152 68.1477L61.0107 52.3267" stroke="black" stroke-width="2" stroke-miterlimit="10"/>
<path d="M94.3726 60.9519L64.8682 45.1309" stroke="black" stroke-width="2" stroke-miterlimit="10"/>
<path d="M98.231 53.7566L68.7266 37.9355" stroke="black" stroke-width="2" stroke-miterlimit="10"/>
<path d="M102.089 46.5632L72.585 30.7422" stroke="black" stroke-width="2" stroke-miterlimit="10"/>
</g>
<path d="M75.75 71.5748C89.7459 53.5898 87.5689 28.4864 70.8873 15.5049C54.2058 2.52336 29.3369 6.57952 15.3409 24.5646C1.34498 42.5496 3.52206 67.653 20.2036 80.6345C36.8851 93.6161 61.7541 89.5599 75.75 71.5748Z" fill="#EF8CFF" stroke="black" stroke-width="2" stroke-miterlimit="10"/>
<path d="M35.6466 45.4471C37.3618 45.4471 38.7522 44.0566 38.7522 42.3414C38.7522 40.6263 37.3618 39.2358 35.6466 39.2358C33.9314 39.2358 32.541 40.6263 32.541 42.3414C32.541 44.0566 33.9314 45.4471 35.6466 45.4471Z" fill="black"/>
<path d="M47.5812 45.4471C49.2964 45.4471 50.6868 44.0566 50.6868 42.3414C50.6868 40.6263 49.2964 39.2358 47.5812 39.2358C45.866 39.2358 44.4756 40.6263 44.4756 42.3414C44.4756 44.0566 45.866 45.4471 47.5812 45.4471Z" fill="black"/>
<path d="M25.7412 28.3812C25.7412 28.3812 27.4124 34.29 33.5791 35.9917C42.7599 38.523 48.711 27.8069 43.667 26.7944C36.8323 25.4232 39.7528 35.9026 46.7468 36.8073C53.8698 37.7285 59.5583 30.418 59.5583 30.418" stroke="black" stroke-width="2" stroke-miterlimit="10"/>
<path d="M46.5576 50.7837C42.2964 50.6478 37.7751 51.4728 34.3906 55.4574C30.9077 59.5568 31.3905 63.9445 35.9821 64.5984C40.2878 65.2125 40.7987 60.4029 44.2231 59.8193C49.4733 58.9216 51.5992 66.0821 55.5298 60.9068C58.019 57.6301 53.5329 51.0064 46.5599 50.7861L46.5576 50.7837Z" fill="#C00FC4" stroke="black" stroke-width="2" stroke-miterlimit="10"/>
</g>
<defs>
<clipPath id="clip0_520_8199">
<rect width="100" height="100" fill="white"/>
</clipPath>
</defs>
</svg>