<svg width="30" height="30" viewBox="0 0 30 30" fill="none" xmlns="http://www.w3.org/2000/svg">
<path d="M14.6602 2.27002C7.75016 2.27002 2.16016 7.87002 2.16016 14.77C2.16016 21.67 7.76016 27.27 14.6602 27.27C21.5602 27.27 27.1602 21.67 27.1602 14.77C27.1602 7.87002 21.5602 2.27002 14.6602 2.27002ZM22.4802 16.47C21.7302 18.68 19.9602 20.09 17.7302 20.22C16.7802 20.28 15.8202 20.09 14.9702 19.7C14.1802 20.28 13.3102 20.58 12.4102 20.58C11.5702 20.58 10.7102 20.33 9.88016 19.81C5.87016 17.33 7.13016 12.56 8.36016 10.38L10.1002 11.36C9.99016 11.55 7.55016 16.02 10.9302 18.1C11.7402 18.6 12.5002 18.7 13.2102 18.41C13.0802 18.26 12.9702 18.11 12.8702 17.95C12.0102 16.57 11.8802 14.84 12.5402 13.64C13.0202 12.77 13.8702 12.28 14.8802 12.28C15.9902 12.28 16.8302 12.86 17.1902 13.88C17.6202 15.09 17.2602 16.75 16.4102 18.11C16.7902 18.21 17.1902 18.25 17.5902 18.23C19.5902 18.11 20.3402 16.51 20.5702 15.83C21.0502 14.41 20.8902 12.42 19.4502 11.17L20.7602 9.66002C22.6102 11.27 23.3002 14.01 22.4702 16.47H22.4802Z" fill="black"/>
<path d="M14.9007 14.28C14.6107 14.28 14.4407 14.38 14.3107 14.61C14.0507 15.09 14.0507 16.05 14.5807 16.89C14.6207 16.95 14.6607 17.02 14.7107 17.08C15.3007 16.16 15.5107 15.07 15.3207 14.54C15.2607 14.36 15.1807 14.27 14.9007 14.27V14.28Z" fill="black"/>
</svg>