<svg width="100" height="100" viewBox="0 0 100 100" fill="none" xmlns="http://www.w3.org/2000/svg">
<g clip-path="url(#clip0_520_8196)">
<path d="M84.6592 76.2633C98.6551 58.2783 96.4781 33.1749 79.7965 20.1934C63.115 7.21182 38.246 11.268 24.2501 29.253C10.2542 47.2381 12.4312 72.3415 29.1128 85.323C45.7943 98.3045 70.6632 94.2484 84.6592 76.2633Z" fill="#1E83E8" stroke="black" stroke-width="2" stroke-miterlimit="10"/>
<mask id="mask0_520_8196" style="mask-type:luminance" maskUnits="userSpaceOnUse" x="15" y="12" width="79" height="81">
<path d="M84.6582 76.2638C98.6542 58.2787 96.4771 33.1754 79.7956 20.1938C63.1141 7.21231 38.2451 11.2685 24.2491 29.2535C10.2532 47.2386 12.4303 72.342 29.1118 85.3235C45.7933 98.305 70.6623 94.2489 84.6582 76.2638Z" fill="white"/>
</mask>
<g mask="url(#mask0_520_8196)">
<path d="M75.0855 96.925L45.5811 81.104" stroke="black" stroke-width="2" stroke-miterlimit="10"/>
<path d="M78.9429 89.7321L49.4385 73.9111" stroke="black" stroke-width="2" stroke-miterlimit="10"/>
<path d="M82.8013 82.5363L53.2969 66.7153" stroke="black" stroke-width="2" stroke-miterlimit="10"/>
<path d="M86.6587 75.3405L57.1543 59.5195" stroke="black" stroke-width="2" stroke-miterlimit="10"/>
<path d="M90.5171 68.1472L61.0127 52.3262" stroke="black" stroke-width="2" stroke-miterlimit="10"/>
<path d="M94.3755 60.9514L64.8711 45.1304" stroke="black" stroke-width="2" stroke-miterlimit="10"/>
<path d="M98.2339 53.7561L68.7295 37.9351" stroke="black" stroke-width="2" stroke-miterlimit="10"/>
<path d="M102.092 46.5627L72.5879 30.7417" stroke="black" stroke-width="2" stroke-miterlimit="10"/>
</g>
<path d="M75.752 71.5748C89.7479 53.5898 87.5708 28.4864 70.8893 15.5049C54.2078 2.52335 29.3388 6.57951 15.3429 24.5646C1.34693 42.5496 3.52401 67.653 20.2055 80.6345C36.887 93.6161 61.756 89.5599 75.752 71.5748Z" fill="#99CCFF" stroke="black" stroke-width="2" stroke-miterlimit="10"/>
<path d="M57.0871 57.8134C57.0871 61.376 54.1995 64.2636 50.6368 64.2636C47.0741 64.2636 44.1865 61.376 44.1865 57.8134C44.1865 55.1062 47.9109 48.438 49.6993 45.3909C50.1188 44.6737 51.1548 44.6737 51.5743 45.3909C53.3627 48.438 57.0871 55.1062 57.0871 57.8134Z" fill="white"/>
<path d="M27.7773 40.1992C27.7773 40.1992 32.8846 42.311 37.9895 36.4443" stroke="black" stroke-width="2" stroke-miterlimit="10"/>
<path d="M46.4648 36.4839C46.4648 36.4839 48.9845 41.4013 56.6747 40.2481" stroke="black" stroke-width="2" stroke-miterlimit="10"/>
</g>
<defs>
<clipPath id="clip0_520_8196">
<rect width="100" height="100" fill="white"/>
</clipPath>
</defs>
</svg>