<svg width="100" height="100" viewBox="0 0 100 100" fill="none" xmlns="http://www.w3.org/2000/svg">
<g clip-path="url(#clip0_520_8201)">
<path d="M84.6576 76.2639C98.6536 58.2787 96.4765 33.1753 79.7949 20.1937C63.1133 7.21209 38.2442 11.2683 24.2482 29.2534C10.2523 47.2385 12.4293 72.342 29.1109 85.3236C45.7925 98.3052 70.6616 94.249 84.6576 76.2639Z" fill="#7CB238" stroke="black" stroke-width="2" stroke-miterlimit="10"/>
<mask id="mask0_520_8201" style="mask-type:luminance" maskUnits="userSpaceOnUse" x="15" y="12" width="79" height="81">
<path d="M84.6576 76.2639C98.6536 58.2787 96.4765 33.1753 79.7949 20.1937C63.1133 7.21209 38.2442 11.2683 24.2482 29.2534C10.2523 47.2385 12.4293 72.342 29.1109 85.3236C45.7925 98.3052 70.6616 94.249 84.6576 76.2639Z" fill="white"/>
</mask>
<g mask="url(#mask0_520_8201)">
<path d="M75.0846 96.9256L45.5801 81.1045" stroke="black" stroke-width="2" stroke-miterlimit="10"/>
<path d="M78.943 89.7322L49.4385 73.9111" stroke="black" stroke-width="2" stroke-miterlimit="10"/>
<path d="M82.8014 82.5364L53.2969 66.7153" stroke="black" stroke-width="2" stroke-miterlimit="10"/>
<path d="M86.6598 75.3411L57.1553 59.52" stroke="black" stroke-width="2" stroke-miterlimit="10"/>
<path d="M90.5163 68.1473L61.0117 52.3262" stroke="black" stroke-width="2" stroke-miterlimit="10"/>
<path d="M94.3747 60.9519L64.8701 45.1309" stroke="black" stroke-width="2" stroke-miterlimit="10"/>
<path d="M98.2331 53.7561L68.7285 37.9351" stroke="black" stroke-width="2" stroke-miterlimit="10"/>
<path d="M102.09 46.5628L72.5859 30.7417" stroke="black" stroke-width="2" stroke-miterlimit="10"/>
</g>
<path d="M75.7513 71.5754C89.7473 53.5903 87.5702 28.4868 70.8887 15.5052C54.2071 2.52362 29.338 6.5798 15.342 24.5649C1.346 42.5501 3.52309 67.6535 20.2047 80.6351C36.8862 93.6167 61.7553 89.5605 75.7513 71.5754Z" fill="#D2FF99" stroke="black" stroke-width="2" stroke-miterlimit="10"/>
<path d="M34.299 43.4433C36.8233 43.4433 38.8696 41.397 38.8696 38.8728C38.8696 36.3485 36.8233 34.3022 34.299 34.3022C31.7748 34.3022 29.7285 36.3485 29.7285 38.8728C29.7285 41.397 31.7748 43.4433 34.299 43.4433Z" fill="white" stroke="black" stroke-width="2" stroke-miterlimit="10"/>
<path d="M51.8635 43.4433C54.3877 43.4433 56.434 41.397 56.434 38.8728C56.434 36.3485 54.3877 34.3022 51.8635 34.3022C49.3393 34.3022 47.293 36.3485 47.293 38.8728C47.293 41.397 49.3393 43.4433 51.8635 43.4433Z" fill="white" stroke="black" stroke-width="2" stroke-miterlimit="10"/>
<path d="M44.9238 75.4747C49.4466 74.9538 52.4077 68.4079 51.5377 60.8541C50.6677 53.3002 46.296 47.5989 41.7732 48.1198C37.2504 48.6407 34.2893 55.1866 35.1593 62.7404C36.0293 70.2943 40.401 75.9956 44.9238 75.4747Z" fill="#CC3300"/>
<mask id="mask1_520_8201" style="mask-type:luminance" maskUnits="userSpaceOnUse" x="35" y="48" width="17" height="28">
<path d="M44.9247 75.4742C49.4475 74.9533 52.4087 68.4074 51.5387 60.8536C50.6687 53.2997 46.297 47.5984 41.7742 48.1193C37.2514 48.6402 34.2902 55.1861 35.1602 62.7399C36.0302 70.2938 40.402 75.9951 44.9247 75.4742Z" fill="white"/>
</mask>
<g mask="url(#mask1_520_8201)">
<path d="M53.44 85.6227C61.2639 84.7216 66.9011 77.8675 66.0311 70.3137C65.1611 62.7598 58.1134 57.3667 50.2895 58.2678C42.4656 59.1689 36.8283 66.023 37.6983 73.5768C38.5683 81.1307 45.6161 86.5238 53.44 85.6227Z" fill="#FF5B29"/>
</g>
<path d="M44.9238 75.4747C49.4466 74.9538 52.4077 68.4079 51.5377 60.8541C50.6677 53.3002 46.296 47.5989 41.7732 48.1198C37.2504 48.6407 34.2893 55.1866 35.1593 62.7404C36.0293 70.2943 40.401 75.9956 44.9238 75.4747Z" stroke="black" stroke-width="2" stroke-miterlimit="10"/>
</g>
<defs>
<clipPath id="clip0_520_8201">
<rect width="100" height="100" fill="white"/>
</clipPath>
</defs>
</svg>