<svg width="115" height="116" viewBox="0 0 115 116" fill="none" xmlns="http://www.w3.org/2000/svg">
<g clip-path="url(#clip0_573_7206)">
<path d="M96.9926 87.7075C112.939 67.2156 110.458 38.6125 91.4501 23.8207C72.4423 9.02885 44.106 13.6497 28.1593 34.1415C12.2126 54.6334 14.694 83.2365 33.7018 98.0283C52.7096 112.82 81.0458 108.199 96.9926 87.7075Z" fill="#CC3300" stroke="black" stroke-width="2.67" stroke-miterlimit="10"/>
<mask id="mask0_573_7206" style="mask-type:luminance" maskUnits="userSpaceOnUse" x="17" y="15" width="91" height="92">
<path d="M96.9926 87.7077C112.939 67.2158 110.458 38.6127 91.4501 23.8209C72.4423 9.02909 44.106 13.6499 28.1593 34.1418C12.2126 54.6337 14.694 83.2368 33.7018 98.0286C52.7096 112.82 81.0458 108.2 96.9926 87.7077Z" fill="white"/>
</mask>
<g mask="url(#mask0_573_7206)">
<path d="M86.0848 111.25L52.4648 93.2251" stroke="black" stroke-width="2.67" stroke-miterlimit="10"/>
<path d="M90.4794 103.055L56.8594 85.03" stroke="black" stroke-width="2.67" stroke-miterlimit="10"/>
<path d="M94.8748 94.8551L61.2598 76.8301" stroke="black" stroke-width="2.67" stroke-miterlimit="10"/>
<path d="M99.2693 86.6601L65.6543 68.6301" stroke="black" stroke-width="2.67" stroke-miterlimit="10"/>
<path d="M103.671 78.4601L70.0508 60.4351" stroke="black" stroke-width="2.67" stroke-miterlimit="10"/>
<path d="M108.065 70.2651L74.4453 52.2351" stroke="black" stroke-width="2.67" stroke-miterlimit="10"/>
<path d="M112.46 62.065L78.8398 44.04" stroke="black" stroke-width="2.67" stroke-miterlimit="10"/>
<path d="M116.854 53.8651L83.2344 35.8401" stroke="black" stroke-width="2.67" stroke-miterlimit="10"/>
</g>
<path d="M86.8441 82.3684C102.791 61.8765 100.309 33.2734 81.3016 18.4816C62.2939 3.68974 33.9576 8.31054 18.0109 28.8024C2.06411 49.2943 4.54557 77.8974 23.5534 92.6892C42.5611 107.481 70.8974 102.86 86.8441 82.3684Z" fill="#FF5B29" stroke="black" stroke-width="2.67" stroke-miterlimit="10"/>
<path d="M56.1096 70.7456C63.134 63.9432 63.6581 53.0899 57.2804 46.5039C50.9026 39.918 40.038 40.0934 33.0136 46.8957C25.9893 53.698 25.4651 64.5514 31.8429 71.1373C38.2207 77.7233 49.0853 77.5479 56.1096 70.7456Z" stroke="black" stroke-width="4" stroke-miterlimit="10"/>
<path d="M57.4648 46.7L72.1398 32.915" stroke="black" stroke-width="4" stroke-miterlimit="10"/>
<path d="M53.9844 32.915H72.1394L70.9694 51.065" stroke="black" stroke-width="4" stroke-miterlimit="10"/>
</g>
<defs>
<clipPath id="clip0_573_7206">
<rect width="115" height="115" fill="white" transform="translate(0 0.75)"/>
</clipPath>
</defs>
</svg>